<?xml version="1.0" encoding="UTF-8"?>
<svg version="1.1" xmlns="http://www.w3.org/2000/svg" width="8192" height="795">
<path d="M0 0 C2703.36 0 5406.72 0 8192 0 C8192 262.35 8192 524.7 8192 795 C5488.64 795 2785.28 795 0 795 C0 532.65 0 270.3 0 0 Z " fill="#F0F1F2" transform="translate(0,0)"/>
<path d="M0 0 C2.84038753 0.01071109 5.68013928 0.0000286 8.52050781 -0.01269531 C21.59954677 -0.02339806 34.47804496 0.80941783 47.47363281 2.26074219 C48.19106659 2.33880096 48.90850037 2.41685974 49.64767456 2.49728394 C59.06420235 3.54572179 68.20310393 5.36524926 77.41113281 7.57324219 C78.06615784 7.72924896 78.72118286 7.88525574 79.39605713 8.04598999 C137.43117188 21.89626111 185.23623597 53.24754646 216.93847656 104.18652344 C241.00359259 143.63974282 252.83557777 189.61184318 255.26269531 235.55371094 C255.40723209 238.21053319 255.40723209 238.21053319 255.97872925 240.56410217 C256.51252299 243.47264772 256.60070433 246.15747882 256.60302734 249.11401367 C256.6061795 250.26969345 256.60933167 251.42537323 256.61257935 252.61607361 C256.609543 254.48012596 256.609543 254.48012596 256.60644531 256.38183594 C256.6078804 258.31906273 256.6078804 258.31906273 256.60934448 260.29542542 C256.61081712 263.03151648 256.60868399 265.76757486 256.60400391 268.50366211 C256.59835786 271.96942783 256.60155549 275.43511522 256.60757637 278.90087795 C256.61211866 282.24870306 256.60890894 285.59650862 256.60644531 288.94433594 C256.60846954 290.16881943 256.61049377 291.39330292 256.61257935 292.65489197 C256.54706893 317.26263473 252.89387751 341.31355788 247.47363281 365.26074219 C247.2697998 366.1854834 247.0659668 367.11022461 246.85595703 368.06298828 C243.06447171 385.23942662 238.18349915 401.41168981 230.47363281 417.26074219 C229.79451734 418.74620155 229.11897709 420.23329863 228.44628906 421.72167969 C218.95088898 442.57249113 206.41872099 461.72770828 190.47363281 478.26074219 C189.88485352 478.88062012 189.29607422 479.50049805 188.68945312 480.13916016 C154.20676642 516.30619999 110.17932836 535.4196846 61.47363281 544.26074219 C60.24521164 544.49844582 60.24521164 544.49844582 58.99197388 544.74095154 C52.63989914 545.94797971 46.33703159 546.81676072 39.89550781 547.36621094 C38.42050812 547.49203804 38.42050812 547.49203804 36.91571045 547.6204071 C25.1919765 548.54068387 13.47746946 548.61156582 1.72363281 548.57324219 C0.01782547 548.57100647 0.01782547 548.57100647 -1.72244263 548.56872559 C-18.50665974 548.52923435 -34.94009041 548.04764511 -51.52636719 545.26074219 C-52.4201709 545.12152344 -53.31397461 544.98230469 -54.23486328 544.83886719 C-88.94269784 539.37167137 -123.99430745 527.16260672 -152.52636719 506.26074219 C-153.56664063 505.5040625 -154.60691406 504.74738281 -155.67871094 503.96777344 C-163.24841723 498.35518482 -170.23294382 492.20503432 -177.03466797 485.68945312 C-178.40802215 484.37409 -179.79284958 483.07073369 -181.17871094 481.76855469 C-203.30471614 460.44649596 -219.43607762 432.08341465 -229.74462891 403.36523438 C-230.62182215 401.00377099 -231.57629453 398.68043025 -232.53417969 396.35058594 C-238.02823026 382.67154786 -240.93557061 368.0654175 -243.71386719 353.63574219 C-243.95153809 352.43095215 -244.18920898 351.22616211 -244.43408203 349.98486328 C-248.93166253 325.72814325 -250.02306791 301.61058716 -249.91748047 277.01538086 C-249.90037506 272.9999891 -249.91057698 268.9851935 -249.92780018 264.96982193 C-250.02552654 238.09914201 -247.91404418 212.30132071 -242.12304688 185.97900391 C-241.59590587 183.57753584 -241.09241473 181.17273886 -240.59667969 178.76464844 C-236.58884357 159.91198362 -229.97669783 141.56141913 -221.52636719 124.26074219 C-221.15817871 123.49987305 -220.78999023 122.73900391 -220.41064453 121.95507812 C-211.51238139 103.76692282 -200.37005216 87.05943848 -186.52636719 72.26074219 C-185.58301514 71.25164795 -185.58301514 71.25164795 -184.62060547 70.22216797 C-169.68235019 54.42063764 -153.35715261 42.06138808 -134.52636719 31.26074219 C-133.87958008 30.88578613 -133.23279297 30.51083008 -132.56640625 30.12451172 C-122.61999794 24.40571527 -112.29957851 20.16429528 -101.52636719 16.26074219 C-100.35074219 15.81988281 -99.17511719 15.37902344 -97.96386719 14.92480469 C-79.20239499 8.23037029 -59.28502537 4.4737119 -39.52636719 2.26074219 C-38.85510803 2.18029663 -38.18384888 2.09985107 -37.49224854 2.01696777 C-24.97070932 0.52850422 -12.60706504 -0.05622362 0 0 Z " fill="#37B9D8" transform="translate(4877.5263671875,237.7392578125)"/>
<path d="M0 0 C2.65655313 0.00532715 5.31293462 0.00004123 7.96948242 -0.00634766 C25.25470694 -0.01667509 42.01282305 0.84414661 59.0534668 3.81787109 C59.82888824 3.95108765 60.60430969 4.0843042 61.40322876 4.22155762 C90.51415013 9.24136196 117.38454431 16.99063258 143.4909668 31.13037109 C144.52866211 31.69111328 145.56635742 32.25185547 146.63549805 32.82958984 C197.39299941 61.36821119 230.42120099 111.8553871 246.18237305 166.93115234 C249.74906587 179.86219443 252.44538272 192.87934908 254.4909668 206.13037109 C254.67433594 207.23364746 254.85770508 208.33692383 255.04663086 209.47363281 C258.28831075 229.46399215 258.86791396 249.27105298 258.8659668 269.50537109 C258.86777954 270.7147937 258.86959229 271.92421631 258.87145996 273.17028809 C258.86084786 335.75836559 249.10056794 403.07395199 211.4909668 455.13037109 C211.06187012 455.72479004 210.63277344 456.31920898 210.19067383 456.93164062 C204.73318911 464.40184405 198.75862396 471.33305277 192.4909668 478.13037109 C191.7381543 478.98630859 190.9853418 479.84224609 190.2097168 480.72412109 C167.84418451 506.15342492 136.25472735 523.41791116 104.4909668 534.13037109 C103.26845215 534.54343506 103.26845215 534.54343506 102.02124023 534.96484375 C54.94614214 550.56564034 -0.68185262 553.62949482 -49.5090332 545.13037109 C-50.58024414 544.94812988 -51.65145508 544.76588867 -52.75512695 544.578125 C-64.95967359 542.44731369 -76.87522553 539.829159 -88.59008789 535.77636719 C-90.6064931 535.09756207 -92.6350728 534.47930821 -94.6730957 533.86865234 C-134.17028965 521.79575795 -170.57120756 496.00672338 -195.21801758 462.86132812 C-196.45968957 461.19652963 -197.72468149 459.55193239 -198.9934082 457.90771484 C-212.00445364 440.73127208 -220.73204513 421.09969302 -228.5090332 401.13037109 C-228.80503418 400.39608887 -229.10103516 399.66180664 -229.40600586 398.90527344 C-238.37365352 376.61858791 -242.59513302 351.87264267 -245.5090332 328.13037109 C-245.59483643 327.49307068 -245.68063965 326.85577026 -245.76904297 326.19915771 C-247.8879916 310.23324639 -247.88407626 294.22938819 -247.87963867 278.15478516 C-247.8794775 275.079998 -247.89317477 272.00581548 -247.9206543 268.93115234 C-248.18063917 239.34901269 -245.89839182 210.46860574 -239.08520508 181.58154297 C-238.57218296 179.39902515 -238.08978467 177.21278804 -237.6184082 175.02099609 C-228.44258773 134.8142191 -208.99444997 97.87465006 -180.5090332 68.13037109 C-179.80157959 67.38207031 -179.80157959 67.38207031 -179.07983398 66.61865234 C-157.93075092 44.33082759 -131.10518292 28.03276636 -102.5090332 17.13037109 C-101.79344238 16.85741211 -101.07785156 16.58445313 -100.34057617 16.30322266 C-68.49097918 4.41564528 -33.83791814 -0.08041183 0 0 Z " fill="#37B9D8" transform="translate(3924.509033203125,237.86962890625)"/>
<path d="M0 0 C0.91214264 0.00182281 1.82428528 0.00364563 2.7640686 0.00552368 C61.39953207 0.20147095 119.65929167 14.61378833 162.9375 56.3125 C163.51967285 56.86357422 164.1018457 57.41464844 164.70166016 57.98242188 C180.19076504 72.69687688 192.36350592 88.77821887 202.9375 107.3125 C203.3612793 108.04629883 203.78505859 108.78009766 204.22167969 109.53613281 C221.5111821 139.7695056 229.96070009 173.0980766 235.125 207.25 C235.29209473 208.35102051 235.45918945 209.45204102 235.63134766 210.58642578 C235.78780762 211.66005371 235.94426758 212.73368164 236.10546875 213.83984375 C236.24235107 214.77562256 236.3792334 215.71140137 236.52026367 216.67553711 C237.69817481 226.94314518 238.1050067 237.15456043 238.140625 247.484375 C238.14345238 248.13630074 238.14627975 248.78822647 238.14919281 249.45990753 C238.16405093 252.91875079 238.17336118 256.37755388 238.17773438 259.83642578 C238.18208969 262.63245909 238.1958857 265.42817872 238.21875 268.22412109 C238.3619119 286.11324779 237.69040979 303.59253279 234.9375 321.3125 C234.82565369 322.04078003 234.71380737 322.76906006 234.59857178 323.51940918 C233.97892586 327.46715134 233.26470116 331.39056733 232.5 335.3125 C232.30857422 336.34503906 232.11714844 337.37757813 231.91992188 338.44140625 C229.13508204 353.13166168 225.63279754 367.28791997 220.4375 381.3125 C220.1787207 382.01772797 219.91994141 382.72295593 219.65332031 383.44955444 C207.44814101 416.57756643 190.26750287 445.8607601 166.9375 472.3125 C166.46924805 472.84391602 166.00099609 473.37533203 165.51855469 473.92285156 C160.00416628 480.1439237 154.39820285 486.05707113 147.9375 491.3125 C147.18073975 491.94575195 147.18073975 491.94575195 146.40869141 492.59179688 C132.92403839 503.87479492 118.75484646 513.01458519 103.1875 521.1875 C102.17059082 521.7230249 101.15368164 522.2585498 100.10595703 522.81030273 C93.8757809 526.01380484 87.58772744 528.72445308 81.02026367 531.16088867 C78.2648374 532.19021834 75.55935902 533.29555794 72.84765625 534.43359375 C67.47805913 536.58944531 61.99190199 538.01613811 56.375 539.375 C55.31998291 539.63249023 54.26496582 539.88998047 53.17797852 540.15527344 C18.11340403 548.57397234 -19.29917829 550.0877647 -55.0625 545.3125 C-56.15820312 545.168125 -57.25390625 545.02375 -58.3828125 544.875 C-61.29571332 544.43052467 -64.17192341 543.88393619 -67.0625 543.3125 C-68.98642578 542.98378906 -68.98642578 542.98378906 -70.94921875 542.6484375 C-109.17725095 535.74847245 -145.21643737 518.75182961 -173.7890625 492.3984375 C-175.9014424 490.4602745 -178.06248072 488.60226729 -180.25 486.75 C-184.25753954 483.23741554 -187.69000885 479.43294958 -191.0625 475.3125 C-191.46871582 474.81862793 -191.87493164 474.32475586 -192.29345703 473.81591797 C-211.22669533 450.67375503 -224.04579562 424.71458977 -233.37231445 396.39941406 C-233.97913367 394.56457476 -234.60705041 392.73674117 -235.23828125 390.91015625 C-238.42557387 380.99778574 -240.38254899 370.9242994 -242.1875 360.6875 C-242.30960846 360.00180939 -242.43171692 359.31611877 -242.55752563 358.60964966 C-243.31695104 354.31153643 -244.0230799 350.00736957 -244.68997192 345.69393921 C-244.94337445 344.07402716 -245.20514967 342.45540752 -245.47433472 340.83804321 C-248.29639474 323.70595056 -248.49375666 306.72589159 -248.3850708 289.42047119 C-248.37164713 286.52738644 -248.37690874 283.63445586 -248.38193989 280.74135399 C-248.40320306 264.50752496 -247.95239426 248.45408666 -246.0625 232.3125 C-245.94221436 231.19222412 -245.82192871 230.07194824 -245.69799805 228.91772461 C-242.19216862 197.4642479 -233.22890024 165.67770305 -219.0625 137.3125 C-218.6715918 136.51054199 -218.28068359 135.70858398 -217.87792969 134.88232422 C-209.03176362 116.82340038 -198.48587952 99.36586132 -185.0625 84.3125 C-184.2375 83.37921875 -183.4125 82.4459375 -182.5625 81.484375 C-179.78175458 78.37666394 -176.93623733 75.33421744 -174.0625 72.3125 C-173.52463867 71.74595703 -172.98677734 71.17941406 -172.43261719 70.59570312 C-164.20914355 61.99692364 -155.61710364 54.39227817 -146.0625 47.3125 C-144.94269089 46.46226255 -143.8228991 45.6120023 -142.703125 44.76171875 C-111.85624049 21.69244842 -74.03382513 7.5885529 -36.0625 2.3125 C-34.93835693 2.14258545 -33.81421387 1.9726709 -32.65600586 1.79760742 C-21.74725562 0.26209899 -11.00683325 -0.04580063 0 0 Z " fill="#5D696B" transform="translate(1212.0625,241.6875)"/>
<path d="M0 0 C2.34857723 0.25941558 4.69596598 0.48242024 7.05003357 0.6849823 C20.40634981 1.85120891 33.50249215 3.98944538 46.68382263 6.40763855 C47.76756165 6.60417023 48.85130066 6.8007019 49.96788025 7.00318909 C63.98887932 9.55235633 77.94363137 12.29703556 91.80882263 15.59513855 C92.47544922 15.75363281 93.14207581 15.91212708 93.8289032 16.07542419 C101.69553124 17.96208473 109.4769647 20.08593427 117.24583435 22.33854675 C122.13771637 23.73257091 127.06570782 24.9718434 131.99632263 26.22013855 C139.81777619 28.2280818 147.49079645 30.43246289 155.10960388 33.1068573 C159.55692132 34.62287378 164.0521317 35.95548372 168.55882263 37.28263855 C168.71355155 51.80996459 168.45198531 66.32223876 168.12132263 80.84513855 C168.09185043 82.19486252 168.09185043 82.19486252 168.06178284 83.57185364 C168.00266484 86.24766469 167.93953851 88.92335391 167.87522888 91.5990448 C167.85851135 92.36154541 167.84179382 93.12404602 167.8245697 93.90965271 C167.6932558 99.1053062 167.46530281 104.29291188 167.20651054 109.48347855 C166.63827891 120.89031033 166.27811701 132.29069682 166.02366638 143.7084198 C165.98047683 145.56171172 165.93706084 147.41499838 165.89343262 149.26828003 C165.781062 154.06673812 165.6716959 158.86525978 165.56303406 163.6638031 C165.45087503 168.59213034 165.33576608 173.52038867 165.22093201 178.44865417 C164.99740044 188.0599184 164.77705433 197.67125263 164.55882263 207.28263855 C156.11844845 207.35206627 147.67819303 207.40541269 139.23760414 207.43807507 C135.31853291 207.45374925 131.39965664 207.47501903 127.48069763 207.50895691 C123.70058138 207.54148856 119.92065296 207.55947835 116.14040756 207.56727028 C114.69624752 207.572825 113.25209807 207.58367176 111.80801773 207.59982872 C109.78967007 207.62151819 107.77113446 207.62286322 105.75267029 207.62321472 C104.0272551 207.63320747 104.0272551 207.63320747 102.26698303 207.6434021 C101.3732901 207.52435013 100.47959717 207.40529816 99.55882263 207.28263855 C97.39331623 204.03437894 96.51297818 200.98845543 95.49632263 197.28263855 C92.9153152 188.17171265 89.9117 179.21522118 86.85740662 170.25334167 C84.96491112 164.66080408 83.18519433 159.06651478 81.59397888 153.3802948 C79.69331785 146.60939536 77.48723387 139.96738942 75.21037292 133.31492615 C71.48765853 122.41739901 67.97211537 111.55667778 65.55882263 100.28263855 C64.28007263 100.05576355 63.00132263 99.82888855 61.68382263 99.59513855 C57.60603879 98.78641606 53.63219879 97.76255616 49.6391449 96.60710144 C28.18007299 90.409081 6.79721189 87.16814382 -15.44117737 85.28263855 C-16.87609273 85.14873309 -18.31099231 85.01465818 -19.74586487 84.8802948 C-23.64489334 84.56888443 -27.5324932 84.38964081 -31.44117737 84.28263855 C-32.52028381 84.25008972 -33.59939026 84.21754089 -34.7111969 84.18400574 C-74.46980866 83.14586712 -113.77238213 90.13473219 -144.44117737 117.28263855 C-145.6999469 118.39058777 -145.6999469 118.39058777 -146.98414612 119.5209198 C-160.9997442 132.71632798 -171.18139111 151.24595865 -171.79273987 170.67326355 C-171.95158179 186.23977231 -168.96779681 200.18449753 -162.44117737 214.28263855 C-162.00031799 215.25845886 -161.55945862 216.23427917 -161.10523987 217.2396698 C-157.21060683 225.10772903 -151.5845848 231.13923111 -145.44117737 237.28263855 C-144.75539612 237.9684198 -144.06961487 238.65420105 -143.36305237 239.36076355 C-131.32062975 250.64460836 -117.11584825 259.59099852 -102.5393219 267.18888855 C-100.63161752 268.18336325 -98.73715443 269.19923237 -96.84352112 270.22013855 C-79.13199025 279.57721964 -59.99001388 287.12876196 -41.16261292 293.92643738 C-37.57786143 295.23282684 -34.01875096 296.59519609 -30.45680237 297.96232605 C-20.8309403 301.60642949 -11.04466352 304.7503109 -1.26249695 307.94389343 C26.28550537 316.96515396 52.62067189 327.25831921 78.55882263 340.28263855 C79.46197205 340.73558289 80.36512146 341.18852722 81.29563904 341.65519714 C91.13387224 346.62461146 100.60056208 351.82198692 109.55882263 358.28263855 C110.51659607 358.96713074 111.47436951 359.65162292 112.46116638 360.3568573 C128.55717786 372.13803784 143.38111381 385.42624686 155.55882263 401.28263855 C155.96487732 401.80696472 156.37093201 402.33129089 156.78929138 402.87150574 C168.93207284 418.68514344 177.35801006 436.7764459 181.80882263 456.22013855 C181.95996521 456.87417664 182.11110779 457.52821472 182.26683044 458.20207214 C185.20040718 472.07199648 185.91052787 486.02888241 185.80882263 500.15763855 C185.80538849 500.94456085 185.80195435 501.73148315 185.79841614 502.54225159 C185.5480782 551.57929193 170.47948065 598.3731303 136.80491638 634.8490448 C135.29661036 636.48326159 133.80969614 638.1374619 132.34397888 639.8099823 C101.47463236 675.01948299 55.21476219 695.2917387 10.55882263 706.28263855 C9.41220154 706.57412781 9.41220154 706.57412781 8.24241638 706.87150574 C-4.83849242 710.17633852 -18.04140116 711.84494072 -31.44117737 713.28263855 C-32.35480042 713.38850281 -33.26842346 713.49436707 -34.20973206 713.60343933 C-59.91772686 716.54535894 -87.40153947 717.20499026 -113.0783844 713.60783386 C-115.78832024 713.23486067 -118.50208676 712.90951709 -121.21852112 712.58732605 C-127.29834555 711.86052236 -133.37054931 711.08236201 -139.44117737 710.28263855 C-140.81306213 710.10281433 -140.81306213 710.10281433 -142.21266174 709.9193573 C-155.38758095 708.17293684 -168.41985466 705.93816136 -181.44117737 703.28263855 C-183.07264709 702.95175232 -183.07264709 702.95175232 -184.73707581 702.61418152 C-210.32377697 697.38690685 -234.84355466 690.34082957 -259.55836487 681.9896698 C-260.23466949 681.76170212 -260.91097412 681.53373444 -261.60777283 681.29885864 C-266.25600978 679.71935401 -270.84769648 678.01483066 -275.44117737 676.28263855 C-276.43117737 675.95263855 -277.42117737 675.62263855 -278.44117737 675.28263855 C-278.44117737 617.53263855 -278.44117737 559.78263855 -278.44117737 500.28263855 C-252.37117737 500.28263855 -226.30117737 500.28263855 -199.44117737 500.28263855 C-196.06618283 513.78261671 -196.06618283 513.78261671 -195.0783844 518.92375183 C-194.74255844 520.65844223 -194.74255844 520.65844223 -194.39994812 522.42817688 C-194.1686319 523.64085236 -193.93731567 524.85352783 -193.69898987 526.10295105 C-193.4464999 527.41362448 -193.1937156 528.72424124 -192.94065857 530.0348053 C-192.27881417 533.46663239 -191.62090153 536.89920126 -190.96388245 540.33195496 C-190.31155592 543.73654678 -189.65553947 547.14042704 -188.99977112 550.5443573 C-188.22645589 554.55913056 -187.45404304 558.57406829 -186.68586731 562.58982849 C-185.45403996 569.02796459 -184.21206258 575.46380773 -182.94410706 581.89494324 C-182.71013214 583.08884674 -182.47615723 584.28275024 -182.23509216 585.51283264 C-181.79629422 587.74952477 -181.35390687 589.98551688 -180.90727234 592.22065735 C-180.71333893 593.21290314 -180.51940552 594.20514893 -180.31959534 595.22746277 C-180.14910675 596.08766022 -179.97861816 596.94785767 -179.80296326 597.8341217 C-179.43081876 600.35274418 -179.37727487 602.74049824 -179.44117737 605.28263855 C-178.67805237 605.50951355 -177.91492737 605.73638855 -177.12867737 605.97013855 C-174.22269489 607.0044713 -171.64078586 608.13306692 -168.87867737 609.47013855 C-147.69746281 619.14972585 -123.61153626 625.21696746 -100.44117737 627.28263855 C-99.12331238 627.40965149 -99.12331238 627.40965149 -97.77882385 627.53923035 C-89.02325157 628.31220522 -80.3139496 628.46883611 -71.53126526 628.46794128 C-69.14233004 628.47012606 -66.75385957 628.48835691 -64.36500549 628.50724792 C-54.22304863 628.54434723 -44.4715437 627.8210823 -34.44117737 626.28263855 C-33.19292175 626.09399231 -33.19292175 626.09399231 -31.91944885 625.90153503 C-5.03404817 621.57282852 21.7828478 611.85072845 43.55882263 595.28263855 C44.10135681 594.87174988 44.64389099 594.46086121 45.2028656 594.03752136 C63.94736108 579.64236467 77.6509373 559.10580789 81.27366638 535.47013855 C82.49473595 521.82092254 81.85001687 509.3256105 77.55882263 496.28263855 C77.20819763 495.2152948 76.85757263 494.14795105 76.49632263 493.04826355 C66.74022575 466.89650386 40.29052401 449.47672232 16.55882263 437.28263855 C15.64906677 436.81213074 14.73931091 436.34162292 13.80198669 435.8568573 C-5.96083939 425.73850392 -26.44880161 418.15410212 -47.53370667 411.27482605 C-50.50144649 410.26207144 -53.42796814 409.1655098 -56.36080933 408.05690002 C-59.71600784 406.80817821 -63.10290203 405.65411792 -66.48805237 404.4896698 C-88.65977054 396.7864313 -110.10890734 388.07540004 -131.40602112 378.2207489 C-133.99732227 377.02628217 -136.59576381 375.84796036 -139.19499207 374.67086792 C-169.777179 360.81628659 -198.26872991 346.09366306 -223.19508362 323.30607605 C-224.96843333 321.70851927 -226.75801719 320.19880363 -228.62867737 318.72013855 C-232.30737877 315.53193067 -235.35341698 312.03818839 -238.44117737 308.28263855 C-239.19398987 307.37900574 -239.94680237 306.47537292 -240.72242737 305.5443573 C-259.97431527 281.57088296 -271.7514953 252.7512884 -275.44117737 222.28263855 C-275.53544006 221.5258783 -275.62970276 220.76911804 -275.7268219 219.98942566 C-281.26731101 168.69282208 -271.82560554 117.47248605 -239.15602112 76.49357605 C-215.21012856 47.82281324 -185.32933339 28.24386009 -150.44117737 15.28263855 C-149.21270081 14.82115417 -147.98422424 14.3596698 -146.71852112 13.88420105 C-130.04387801 7.98133979 -112.34701855 4.04992146 -94.83424377 1.6224823 C-93.18320035 1.38801459 -91.53445414 1.1369802 -89.88795471 0.8724823 C-60.62364068 -3.79886605 -29.40315652 -3.4093053 0 0 Z " fill="#5D696B" transform="translate(284.44117736816406,74.71736145019531)"/>
<path d="M0 0 C0 144.21 0 288.42 0 437 C42.075 436.505 42.075 436.505 85 436 C92.425 423.13 92.425 423.13 100 410 C102.77151737 405.38001747 105.54992451 400.77356126 108.375 396.1875 C114.23111801 386.62324165 119.97302295 376.99872307 125.625 367.3125 C131.61175146 357.05315021 137.66887933 346.84025128 143.7956543 336.66357422 C148.92313152 328.14353806 153.98149316 319.58459876 159 311 C158.08863281 310.79246094 157.17726563 310.58492188 156.23828125 310.37109375 C145.41850546 307.82543109 134.96479999 304.4497958 124.46850586 300.80615234 C121.33928656 299.7842275 118.16520245 298.90434356 115 298 C115 279.52 115 261.04 115 242 C125.74884766 241.81824219 125.74884766 241.81824219 136.71484375 241.6328125 C146.45576386 241.46551108 156.19663875 241.29569111 165.9375 241.125 C167.82883982 241.0919363 167.82883982 241.0919363 169.75838852 241.05820465 C209.09698986 240.37585607 209.09698986 240.37585607 248.4296875 239.421875 C249.26247538 239.39866558 250.09526325 239.37545616 250.95328712 239.35154343 C258.51565777 239.13915238 266.07762765 238.91581909 273.63913822 238.67472649 C293.44264014 238.04575677 313.18554383 237.92785374 333 238 C333 257.8 333 277.6 333 298 C311.625 301.4375 311.625 301.4375 304.87744141 302.51733398 C303.11877291 302.80165969 301.36014384 303.08622945 299.6015625 303.37109375 C298.2242395 303.59013367 298.2242395 303.59013367 296.8190918 303.81359863 C295.94631592 303.95559692 295.07354004 304.09759521 294.17431641 304.24389648 C293.41486725 304.36603012 292.65541809 304.48816376 291.87295532 304.61399841 C289.92006454 304.93268936 289.92006454 304.93268936 288 306 C286.25672616 306.34806978 284.50487054 306.65362388 282.75 306.9375 C281.71931396 307.11337646 280.68862793 307.28925293 279.62670898 307.47045898 C276 308 276 308 272.54418945 308.19189453 C265.66707977 308.63487908 265.66707977 308.63487908 259.74462891 311.81176758 C257.72878991 314.41703159 256.08175805 317.08266693 254.4375 319.9375 C253.39447671 321.60061146 252.35114865 323.26354253 251.30177307 324.9226532 C250.52288428 326.15983027 249.75000933 327.40080956 248.98252869 328.64509583 C243.71066859 337.1826973 238.0041577 345.43158058 232.36276245 353.72717285 C229.1680448 358.43202215 225.99207846 363.14947053 222.81640625 367.8671875 C222.21022964 368.76735596 221.60405304 369.66752441 220.97950745 370.5949707 C216.00225959 377.98930203 211.05357928 385.40214689 206.12182617 392.8269043 C197.87263312 405.22761612 189.51251137 417.55414978 181.16732788 429.8903656 C180.07220701 431.51184176 178.97910408 433.13468276 177.88809204 434.75892639 C175.11664281 438.88394994 172.31827614 442.98546122 169.46679688 447.05566406 C168.6208194 448.27994614 168.6208194 448.27994614 167.75775146 449.52896118 C166.68529409 451.08074231 165.60139722 452.62470013 164.50445557 454.15927124 C161.72600826 458.07616826 161.72600826 458.07616826 161.01391602 462.68579102 C162.11057464 465.25950408 163.28757515 467.67765142 164.66796875 470.11328125 C165.22419922 471.10134766 165.78042969 472.08941406 166.35351562 473.10742188 C167.26133789 474.69393555 167.26133789 474.69393555 168.1875 476.3125 C168.81462891 477.42044922 169.44175781 478.52839844 170.08789062 479.66992188 C174.90138891 488.14764164 179.81166084 496.56846038 184.74682617 504.97583008 C188.92102521 512.10178831 192.98399493 519.28385471 197 526.5 C202.16217037 535.77445667 207.44916951 544.96627892 212.8203125 554.12109375 C217.33194449 561.82215685 221.73440829 569.58021979 226.10791016 577.36035156 C229.98325896 584.23918358 233.94220511 591.06524182 237.9375 597.875 C242.72109661 606.03150953 247.40107632 614.23799508 252 622.5 C259.6317136 636.20698487 259.6317136 636.20698487 267.6268158 649.70388794 C270.71820141 654.81489584 273.41639095 659.81188361 275.61962891 665.36889648 C280.84489049 677.59650113 286.11634036 685.27226702 298.55601025 690.39535236 C306.81265179 693.54575939 315.29136482 696.0005975 323.79711914 698.37432861 C329.03079991 699.86228608 334.21984246 701.49886345 339.41681671 703.109375 C347.25004709 705.51929483 355.11567793 707.73846998 363 710 C363 728.15 363 746.3 363 765 C345.70108546 765.38435076 328.40583426 765.6972214 311.10383034 765.88080692 C303.06945173 765.96833016 295.03792087 766.0875409 287.00537109 766.2824707 C280.0006615 766.45237579 272.99801379 766.56168933 265.99130094 766.59950441 C262.28278701 766.62160367 258.58016858 766.67315271 254.87355423 766.79741096 C232.3672675 767.52313517 232.3672675 767.52313517 226.80871582 763.35804367 C223.34743652 759.40306706 221.40539649 755.05341861 219.75340557 750.10660172 C218.61655675 746.92785208 216.96165393 744.20899387 215.234375 741.3125 C214.0708499 739.20947547 212.90941559 737.10529293 211.75 735 C210.78309844 733.2521253 209.81618885 731.50425497 208.84873962 729.75668335 C208.19377512 728.57356288 207.53903938 727.39031573 206.88453674 726.2069397 C203.58954047 720.25135433 200.26599461 714.31190926 196.9375 708.375 C196.36418945 707.35212891 195.79087891 706.32925781 195.20019531 705.27539062 C194.04489413 703.21444254 192.8894583 701.15356992 191.73388672 699.09277344 C188.8206086 693.89629255 185.91047173 688.69805304 183 683.5 C181.8333482 681.41665834 180.66668154 679.33332501 179.5 677.25 C172.5 664.75000001 172.5 664.75000001 170.74975586 661.62451172 C169.58396248 659.54277268 168.41810968 657.46106691 167.25219727 655.37939453 C164.3216794 650.14694077 161.39222084 644.91389914 158.46484375 639.6796875 C152.85327585 629.64855394 147.22843231 619.62553954 141.5625 609.625 C136.18397562 600.13019929 130.8792611 590.59561735 125.58837891 581.05175781 C121.05146418 572.87480108 116.46843104 564.72519103 111.85913086 556.58886719 C107.74201938 549.31942386 103.64613533 542.03830131 99.5625 534.75 C98.99523193 533.73856934 98.42796387 532.72713867 97.84350586 531.68505859 C97.29831299 530.71133301 96.75312012 529.73760742 96.19140625 528.734375 C95.71904541 527.89100586 95.24668457 527.04763672 94.76000977 526.17871094 C92.15020651 521.4652086 89.57995011 516.72990853 87 512 C58.29 511.67 29.58 511.34 0 511 C0 568.75 0 626.5 0 686 C4.95 687.485 4.95 687.485 10 689 C13.25194062 690.17585606 16.48203704 691.37289422 19.70703125 692.6171875 C20.59428391 692.95622101 21.48153656 693.29525452 22.39567566 693.64456177 C25.2025793 694.71802678 28.00755895 695.79641868 30.8125 696.875 C32.68021352 697.59017033 34.54805121 698.30501648 36.41601562 699.01953125 C45.94848496 702.66804758 55.473487 706.33595654 65 710 C65 728.15 65 746.3 65 765 C-17.17 765 -99.34 765 -184 765 C-184 746.85 -184 728.7 -184 710 C-157.99123832 702.08428992 -157.99123832 702.08428992 -149.3125 699.8125 C-142.79125922 698.06900386 -136.367347 696.20842982 -129.984375 694.00390625 C-126.15751786 692.7165996 -122.30499191 691.53367663 -118.4375 690.375 C-117.42852661 690.06550415 -117.42852661 690.06550415 -116.39916992 689.74975586 C-110.58506118 688.02589047 -105.07407792 687.1043778 -99 686 C-99 485.36 -99 284.72 -99 78 C-101.97 77.67 -104.94 77.34 -108 77 C-109.94059874 76.64868605 -111.87573054 76.26433534 -113.80078125 75.8359375 C-114.84621094 75.60438965 -115.89164063 75.3728418 -116.96875 75.13427734 C-118.0721875 74.88371582 -119.175625 74.6331543 -120.3125 74.375 C-121.48167969 74.11283691 -122.65085937 73.85067383 -123.85546875 73.58056641 C-133.61670489 71.36789814 -143.32079812 68.94690599 -153.02026367 66.47949219 C-160.80939121 64.50968799 -168.61411471 62.72104376 -176.49414062 61.15380859 C-181.82049073 60.08975463 -181.82049073 60.08975463 -184 59 C-184 40.85 -184 22.7 -184 4 C-153.85919868 2.85953725 -123.72063012 1.81772246 -93.56939697 1.00872803 C-90.35263196 0.92235943 -87.13597289 0.83307731 -83.91937256 0.74078369 C-55.92781128 -0.05192189 -28.02308474 0 0 0 Z " fill="#5D696B" transform="translate(2206,14)"/>
<path d="M0 0 C202.78359684 0 202.78359684 0 241 7 C242.15169678 7.20979492 242.15169678 7.20979492 243.32666016 7.42382812 C274.31808194 13.30530812 304.18660527 27.12930753 327 49 C327.83144531 49.76828125 328.66289062 50.5365625 329.51953125 51.328125 C336.08532592 57.58126278 341.11375766 64.42963228 346 72 C346.53238281 72.77472656 347.06476563 73.54945313 347.61328125 74.34765625 C363.04209918 97.92754781 367.22950432 127.56783285 367.1875 155.125 C367.18689575 155.85644226 367.1862915 156.58788452 367.18566895 157.3414917 C367.10088565 195.12278985 355.95645874 228.75762995 330.109375 256.69921875 C328.20964982 258.7713264 326.41773619 260.89841131 324.625 263.0625 C320.28099371 268.02281839 315.21759722 271.99672848 310 276 C308.97132812 276.7940625 307.94265625 277.588125 306.8828125 278.40625 C300.09310457 283.51222397 292.9885612 287.87720643 285.5625 292 C284.72211182 292.46905762 283.88172363 292.93811523 283.01586914 293.42138672 C278.40120193 295.92442858 274.11226058 297.78902037 269 299 C272.32302877 305.21073475 275.9472835 311.09904518 279.91796875 316.9140625 C280.48394272 317.74980301 281.04991669 318.58554352 281.63304138 319.4466095 C282.84868494 321.24102478 284.0659602 323.03433556 285.284729 324.82662964 C288.55294707 329.63313792 291.80900313 334.44787754 295.06640625 339.26171875 C295.73109924 340.24336502 296.39579224 341.22501129 297.08062744 342.23640442 C303.64481784 351.93732624 310.13974255 361.68371366 316.625 371.4375 C324.54090984 383.33566476 332.49738758 395.20320836 340.53637695 407.01855469 C347.82033494 417.72450832 355.07050188 428.45312265 362.3125 439.1875 C362.93237793 440.10607788 363.55225586 441.02465576 364.19091797 441.97106934 C370.64209746 451.53296953 377.0812 461.10247777 383.46875 470.70703125 C383.97125778 471.46243698 384.47376556 472.21784271 384.99150085 472.99613953 C387.31449119 476.48983387 389.63415554 479.98567092 391.94848633 483.48510742 C396.26324399 489.99551611 400.68277862 496.40250257 405.3137207 502.69433594 C407.2705508 505.36992641 409.12269915 508.10135879 410.9375 510.875 C413.08652162 514.13912031 415.25494181 517.38227343 417.50390625 520.578125 C417.91970947 521.16996582 418.3355127 521.76180664 418.76391602 522.37158203 C419.94324331 524.04448913 421.12774313 525.71374624 422.3125 527.3828125 C424 530 424 530 424 532 C407.91025721 532.46849228 391.82274429 532.82047698 375.72781754 533.03624344 C368.25322984 533.13912368 360.78289236 533.27916974 353.31103516 533.50878906 C346.79338801 533.70898778 340.27881751 533.83734652 333.75818133 533.8817699 C330.30765899 533.90772811 326.8659308 533.96800911 323.41825104 534.11460114 C302.54689412 534.96778904 302.54689412 534.96778904 296.7179718 530.09056091 C292.83419764 525.39243373 290.40074054 520.21825912 288.13865566 514.59656239 C286.28129743 510.36108833 283.74378587 506.59027955 281.1875 502.75 C280.63763428 501.88221924 280.08776855 501.01443848 279.52124023 500.12036133 C279.07981689 499.4270874 278.63839355 498.73381348 278.18359375 498.01953125 C268.64635482 483.00427911 259.29303025 467.87424358 249.98364258 452.71704102 C243.05146959 441.43889968 236.03019126 430.2172088 229 419 C220.53408975 405.49199155 212.1168864 391.95669535 203.77636719 378.37084961 C199.82954801 371.94978243 195.84748342 365.55348808 191.8125 359.1875 C185.47350555 349.16779909 179.24073824 339.08119255 173 329 C142.805 328.505 142.805 328.505 112 328 C112 395.32 112 462.64 112 532 C75.04 532 38.08 532 0 532 C0 356.44 0 180.88 0 0 Z " fill="#37B9D8" transform="translate(5770,247)"/>
<path d="M0 0 C1.01673766 0.00092179 2.03347532 0.00184359 3.08102322 0.00279331 C4.24355114 0.00141865 5.40607906 0.00004398 6.60383511 -0.00137234 C7.89064175 0.00222294 9.17744839 0.00581821 10.50324917 0.00952244 C11.86298527 0.00980431 13.22272153 0.00964658 14.58245754 0.00907993 C18.28477281 0.00879196 21.98705595 0.01468871 25.68936372 0.02165389 C29.55444283 0.0278874 33.41952261 0.02849123 37.28460598 0.0296793 C44.60860185 0.03279262 51.93258287 0.04100602 59.25657219 0.05102879 C67.5925895 0.06218989 75.92860751 0.06770037 84.26463044 0.07272422 C101.4170139 0.08318864 118.5693829 0.1007881 135.72175503 0.12304783 C149.72620463 38.81303992 149.72620463 38.81303992 155.53425503 55.43554783 C156.07888569 56.98979206 156.6236481 58.54399014 157.16853237 60.09814548 C160.38405127 69.2745761 163.58107932 78.45738711 166.76374722 87.64526463 C168.62095051 92.99519887 170.50413613 98.3354803 172.40534878 103.66992283 C172.75785954 104.65919018 172.75785954 104.65919018 173.11749172 105.66844273 C174.55895936 109.71322753 174.55895936 109.71322753 176.00089931 113.75784397 C179.26468915 122.91837219 182.45037929 132.09983305 185.44074917 141.35400486 C187.02701349 146.22131803 188.82833399 150.95748921 190.75520229 155.69995213 C192.19224732 159.3025467 193.46106283 162.95576141 194.72175503 166.62304783 C195.32527996 168.36415582 195.92950361 170.10502171 196.53425503 171.84570408 C196.87327847 172.82168552 197.2123019 173.79766697 197.56159878 174.80322361 C198.89569705 178.6207885 200.24483332 182.43286019 201.59675503 186.24414158 C211.60232344 214.46488385 211.60232344 214.46488385 215.49128628 226.50561619 C216.69753873 230.20863383 217.98842851 233.83408132 219.47175503 237.43554783 C222.51358011 244.92460727 225.06160931 252.5952471 227.71247768 260.22882175 C229.4891524 265.32365354 231.29415979 270.40843579 233.09675503 275.49414158 C233.86245125 277.65752783 234.62807554 279.82093954 235.39363003 281.98437595 C236.55741215 285.27254943 237.721746 288.56052237 238.88777065 291.84790134 C243.15687385 303.886593 247.39878302 315.92742434 251.33943081 328.07847691 C252.97647723 333.07890901 254.82304888 337.95112362 256.80476284 342.82493687 C257.96528653 345.7333719 258.97082802 348.67721929 259.94050503 351.65429783 C260.50318081 353.3655283 260.50318081 353.3655283 261.07722378 355.11132908 C261.84024461 357.45247491 262.60326544 359.79362075 263.36628628 362.13476658 C263.92896206 363.84599705 263.92896206 363.84599705 264.50300503 365.59179783 C264.83364956 366.60693455 265.16429409 367.62207127 265.50495815 368.6679697 C266.47403359 371.41964619 267.50702347 374.1049621 268.6026144 376.80664158 C270.85574584 382.38546301 272.86295726 388.03754835 274.84675503 393.71679783 C275.23055325 394.80976673 275.61435146 395.90273563 276.00977993 397.02882481 C277.24912884 400.55952627 278.48548938 404.09126573 279.72175503 407.62304783 C281.00767421 411.2897918 282.2942458 414.95630646 283.58082485 418.62281895 C284.43334865 421.05260516 285.28560406 423.48248556 286.13758755 425.91246128 C288.54570891 432.77939289 290.96195536 439.64332789 293.39363003 446.50195408 C293.66155361 447.25781803 293.9294772 448.01368198 294.20551968 448.7924509 C294.71677655 450.23468619 295.22804714 451.67691662 295.73933315 453.11914158 C299.4355862 463.54750352 303.09238807 473.98480806 306.49421597 484.51391697 C307.72602199 488.29655353 309.05019402 492.00419401 310.54988003 495.68945408 C313.13110778 502.04296182 315.42798848 508.49654085 317.72321987 514.95727634 C318.47962167 517.08265192 319.24319637 519.2053689 320.00691128 521.32812595 C320.49042309 522.68539156 320.97351187 524.04280795 321.45613003 525.40039158 C321.89151089 526.61976414 322.32689175 527.8391367 322.77546597 529.09545994 C323.72175503 532.12304783 323.72175503 532.12304783 323.72175503 535.12304783 C283.46175503 535.12304783 243.20175503 535.12304783 201.72175503 535.12304783 C200.07175503 529.18304783 198.42175503 523.24304783 196.72175503 517.12304783 C194.86101469 511.54010875 194.86101469 511.54010875 192.97175503 505.96679783 C191.55932839 501.72951791 190.38872595 497.43323054 189.22175503 493.12304783 C187.73158458 487.62235247 186.12988447 482.20591826 184.28425503 476.81054783 C182.22830716 470.79738369 180.43795612 464.74141665 178.72175503 458.62304783 C176.68553915 451.36672663 174.45896161 444.23826186 172.01863003 437.10742283 C169.49824281 429.54626119 167.44681281 421.8287062 165.30671597 414.15332127 C164.81999539 412.46401898 164.2776902 410.79085333 163.72175503 409.12304783 C67.69175503 408.62804783 67.69175503 408.62804783 -30.27824497 408.12304783 C-30.60824497 410.10304783 -30.93824497 412.08304783 -31.27824497 414.12304783 C-31.98877767 416.38582119 -32.74253545 418.63526756 -33.52824497 420.87304783 C-35.46987941 426.51175735 -37.16651038 432.17722556 -38.71574497 437.93554783 C-40.5873437 444.86061144 -42.73334442 451.64869316 -45.04533482 458.43823338 C-47.00142625 464.21039914 -48.76302179 470.02197276 -50.45622349 475.87597752 C-51.81882638 480.58166645 -53.24115862 485.26378217 -54.71574497 489.93554783 C-56.61506206 495.96394573 -58.46296565 502.00630172 -60.27824497 508.06054783 C-60.61553623 509.18457005 -60.61553623 509.18457005 -60.95964146 510.33129978 C-63.42868185 518.58663759 -65.84686047 526.85634052 -68.27824497 535.12304783 C-108.53824497 535.12304783 -148.79824497 535.12304783 -190.27824497 535.12304783 C-187.03449497 523.22929783 -187.03449497 523.22929783 -185.09465122 518.28320408 C-183.72029417 514.64674737 -182.54575533 510.94341291 -181.34074497 507.24804783 C-180.58581516 505.02766602 -179.78601793 502.82231787 -178.95597935 500.6289072 C-176.99665418 495.4212584 -175.18692555 490.16365604 -173.37199497 484.90429783 C-173.00602207 483.8469846 -172.64004917 482.78967136 -172.26298618 481.70031834 C-171.10043116 478.34156437 -169.93917447 474.98236396 -168.77824497 471.62304783 C-167.2481702 467.19555685 -165.71674342 462.76853695 -164.18449497 458.34179783 C-163.83753574 457.33636936 -163.49057652 456.3309409 -163.13310337 455.2950449 C-161.49388276 450.55962971 -159.81331381 445.84823757 -158.03691196 441.16272068 C-156.48385797 436.98734188 -155.04697394 432.770439 -153.59074497 428.56054783 C-153.24696812 427.56982273 -152.90319126 426.57909763 -152.54899693 425.55835056 C-151.45780118 422.41357644 -150.36786365 419.2683687 -149.27824497 416.12304783 C-147.84188602 411.9768177 -146.40421316 407.8310466 -144.96574497 403.68554783 C-144.4781168 402.27583714 -144.4781168 402.27583714 -143.98063755 400.83764744 C-142.37104238 396.19935646 -140.71888586 391.58393158 -138.98017979 386.99252415 C-137.81581694 383.89145448 -136.71648562 380.76744942 -135.61808872 377.64257908 C-135.23897594 376.56614895 -135.23897594 376.56614895 -134.85220432 375.46797276 C-131.1467659 364.92770052 -127.49755476 354.36776011 -123.84074497 343.81054783 C-115.53670527 319.84135804 -115.53670527 319.84135804 -111.43058872 308.08007908 C-111.15485523 307.28832783 -110.87912174 306.49657658 -110.59503269 305.68083286 C-108.88889719 300.80176887 -107.10436607 295.95849256 -105.27824497 291.12304783 C-102.37213519 283.0565562 -99.56101952 274.95667622 -96.77043247 266.84961033 C-96.55051136 266.21083454 -96.33059025 265.57205875 -96.10400486 264.91392612 C-94.99863221 261.70214125 -93.89495239 258.4897868 -92.79362583 255.27661228 C-90.70280718 249.1909902 -88.56345166 243.13813209 -86.27824497 237.12304783 C-83.37213519 229.0565562 -80.56101952 220.95667622 -77.77043247 212.84961033 C-77.55051136 212.21083454 -77.33059025 211.57205875 -77.10400486 210.91392612 C-75.99863221 207.70214125 -74.89495239 204.4897868 -73.79362583 201.27661228 C-71.95978397 195.93895733 -70.11676943 190.61329387 -68.10759068 185.33911228 C-65.9858386 179.66965581 -63.9901452 173.95288992 -61.96574497 168.24804783 C-61.72146763 167.56040348 -61.47719028 166.87275913 -61.2255106 166.16427708 C-58.09892578 157.35703745 -55.00864019 148.54057574 -52.11686802 139.65283298 C-50.89635744 135.91006206 -49.56765825 132.22476771 -48.1708231 128.54467869 C-46.10522037 122.94054482 -44.21234845 117.27363607 -42.27824497 111.62304783 C-39.69904387 104.08777187 -37.10994296 96.56754081 -34.27824497 89.12304783 C-31.37213519 81.0565562 -28.56101952 72.95667622 -25.77043247 64.84961033 C-25.55051136 64.21083454 -25.33059025 63.57205875 -25.10400486 62.91392612 C-23.99863221 59.70214125 -22.89495239 56.4897868 -21.79362583 53.27661228 C-21.17693027 51.48163303 -21.17693027 51.48163303 -20.54777622 49.65039158 C-20.00020664 48.05312229 -20.00020664 48.05312229 -19.44157505 46.42358494 C-18.59159585 44.01206996 -17.71924024 41.61815508 -16.81657505 39.22656345 C-15.27935447 35.15233443 -13.82928108 31.05101423 -12.39543247 26.93945408 C-11.86299996 25.42053195 -11.33044446 23.90165293 -10.79777622 22.38281345 C-9.96917194 20.0174574 -9.14146989 17.65179831 -8.31584263 15.28540134 C-7.51160756 12.98167684 -6.70381596 10.67922558 -5.89543247 8.37695408 C-5.64751957 7.6635033 -5.39960667 6.95005253 -5.14418125 6.21498203 C-3.01382499 0.16277645 -3.01382499 0.16277645 0 0 Z " fill="#37B9D8" transform="translate(6400.278244972229,243.87695217132568)"/>
<path d="M0 0 C37.29 0 74.58 0 113 0 C113 68.97 113 137.94 113 209 C182.63 209 252.26 209 324 209 C324 140.03 324 71.06 324 0 C361.29 0 398.58 0 437 0 C437 175.89 437 351.78 437 533 C399.71 533 362.42 533 324 533 C324 457.1 324 381.2 324 303 C254.37 303 184.74 303 113 303 C113 378.9 113 454.8 113 533 C75.71 533 38.42 533 0 533 C0 357.11 0 181.22 0 0 Z " fill="#37B9D8" transform="translate(3144,246)"/>
<path d="M0 0 C37.29 0 74.58 0 113 0 C113 68.97 113 137.94 113 209 C182.63 209 252.26 209 324 209 C324 140.36 324 71.72 324 1 C360.96 1 397.92 1 436 1 C436 176.56 436 352.12 436 533 C399.04 533 362.08 533 324 533 C324 457.1 324 381.2 324 303 C254.37 303 184.74 303 113 303 C113 378.9 113 454.8 113 533 C75.71 533 38.42 533 0 533 C0 357.11 0 181.22 0 0 Z " fill="#37B9D8" transform="translate(7215,246)"/>
<path d="M0 0 C1.91015022 0.28129947 3.82031708 0.56249529 5.73088074 0.8409729 C21.33414707 3.12642545 36.76536503 5.88551353 52 10 C53.12535156 10.29414795 53.12535156 10.29414795 54.2734375 10.59423828 C71.98543898 15.27887881 88.96603973 22.32821723 106 29 C103.31454727 37.66934197 99.76666256 45.95764347 96.25 54.3125 C95.58780519 55.89219587 94.92594585 57.4720324 94.2644043 59.05200195 C93.23358347 61.51353699 92.20241999 63.97492454 91.16996765 66.43577576 C88.70789282 72.3042433 86.25845071 78.17785864 83.81640625 84.0546875 C83.30957809 85.27387123 83.30957809 85.27387123 82.79251099 86.51768494 C81.48012514 89.67472513 80.16777175 92.83177791 78.85681152 95.9894104 C75.65541251 103.69824086 72.44032417 111.39372497 69 119 C65.10751646 118.3525162 61.73568554 117.18952383 58.09765625 115.671875 C56.96730957 115.20410645 55.83696289 114.73633789 54.67236328 114.25439453 C53.4811084 113.75794434 52.28985352 113.26149414 51.0625 112.75 C30.81122379 104.41524342 11.17682796 98.43887717 -10.4375 94.75 C-11.85554932 94.50527954 -11.85554932 94.50527954 -13.30224609 94.25561523 C-25.87421516 92.20964868 -38.47561729 91.81331588 -51.18579102 91.81469727 C-53.43199494 91.81250537 -55.67770992 91.79424088 -57.92382812 91.77539062 C-71.04988218 91.72312993 -83.71501327 93.14068316 -96.5 96.25 C-97.83853027 96.57532715 -97.83853027 96.57532715 -99.20410156 96.90722656 C-117.50307817 101.52964142 -135.30123357 110.1109835 -150 122 C-150.81331787 122.65524658 -150.81331787 122.65524658 -151.64306641 123.32373047 C-188.0115976 152.85858728 -207.13224393 195.8764004 -212 242 C-212.97310966 253.22894644 -213.24184868 264.42279485 -213.25 275.6875 C-213.25067474 276.53561249 -213.25134949 277.38372498 -213.25204468 278.25753784 C-213.22406191 300.58543166 -211.14887836 322.18085614 -205.55371094 343.85449219 C-205.10098503 345.60870526 -204.67545592 347.36991766 -204.2578125 349.1328125 C-196.02258334 382.37873763 -177.36400908 413.70564927 -147.71875 431.8359375 C-138.53227199 437.26998909 -129.07504316 441.18537389 -118.875 444.3125 C-118.08851074 444.55508545 -117.30202148 444.7976709 -116.49169922 445.04760742 C-102.75120407 449.04430296 -89.19100836 449.36352181 -75 449.3125 C-74.03278015 449.31167419 -73.0655603 449.31084839 -72.06903076 449.30999756 C-54.28096209 449.27513123 -36.92758584 448.07306332 -19.31933594 445.45214844 C-18.08731445 445.26942383 -16.85529297 445.08669922 -15.5859375 444.8984375 C-14.47009277 444.72747559 -13.35424805 444.55651367 -12.20458984 444.38037109 C-9 444 -9 444 -3 444 C-3 407.04 -3 370.08 -3 332 C-36.33 332 -69.66 332 -104 332 C-104 300.98 -104 269.96 -104 238 C-34.37 238 35.26 238 107 238 C107 329.08 107 420.16 107 514 C99.10728045 517.38259409 99.10728045 517.38259409 95.0078125 518.54296875 C94.07219482 518.80811279 93.13657715 519.07325684 92.17260742 519.34643555 C91.16689697 519.62398682 90.16118652 519.90153809 89.125 520.1875 C87.51685425 520.63379761 87.51685425 520.63379761 85.8762207 521.08911133 C65.50900066 526.66297858 44.90911725 531.82588556 24.12988281 535.61181641 C22.75050429 535.86321621 21.37215172 536.12034013 19.99511719 536.38427734 C8.80025011 538.52732644 -2.49502811 539.82772 -13.8125 541.125 C-14.56403351 541.21144775 -15.31556702 541.29789551 -16.08987427 541.38696289 C-18.29522202 541.63901295 -20.50100117 541.88681139 -22.70703125 542.1328125 C-23.9906958 542.27605957 -25.27436035 542.41930664 -26.59692383 542.56689453 C-37.36224864 543.66272541 -48.0585967 544.184423 -58.87890625 544.2734375 C-59.56734241 544.2796751 -60.25577858 544.2859127 -60.96507645 544.29233932 C-66.16418891 544.3379715 -71.36321296 544.36140834 -76.5625 544.375 C-77.32377323 544.37730118 -78.08504646 544.37960236 -78.86938858 544.38197327 C-115.42295592 544.47425729 -115.42295592 544.47425729 -133.1875 541.75 C-133.85661407 541.64757996 -134.52572815 541.54515991 -135.21511841 541.43963623 C-168.88500731 536.07595386 -203.0964448 524.96768171 -231 505 C-231.99386719 504.29617188 -232.98773438 503.59234375 -234.01171875 502.8671875 C-249.38871393 491.65102631 -263.29568869 479.04013644 -275 464 C-275.63010986 463.20045898 -275.63010986 463.20045898 -276.27294922 462.38476562 C-291.61820607 442.78926521 -303.07818214 420.31659912 -311.32958984 396.88818359 C-311.95642641 395.12272329 -312.6119446 393.3675201 -313.26953125 391.61328125 C-317.77374626 379.07297469 -320.32582487 366.0275436 -323 353 C-323.20012695 352.05157227 -323.40025391 351.10314453 -323.60644531 350.12597656 C-329.82826369 320.21548366 -330.66709718 289.41374742 -330.04034424 258.96679688 C-330.00221834 257.10814479 -329.9694495 255.24938506 -329.93701172 253.390625 C-329.50929983 231.59316009 -327.07336384 210.2105311 -322 189 C-321.79536133 188.12053711 -321.59072266 187.24107422 -321.37988281 186.33496094 C-316.61740758 166.0677457 -309.99867591 146.32058023 -300.06542969 127.97021484 C-298.91334328 125.83975259 -297.78959561 123.69537811 -296.6640625 121.55078125 C-291.24037629 111.3647549 -285.08372781 102.09851896 -278 93 C-277.32324219 92.11054688 -276.64648438 91.22109375 -275.94921875 90.3046875 C-235.08074099 37.67488798 -173.69814715 9.81466781 -109 0 C-107.9368457 -0.16661133 -106.87369141 -0.33322266 -105.77832031 -0.50488281 C-71.51515379 -5.64276218 -34.18103666 -5.48811903 0 0 Z " fill="#37B9D8" transform="translate(5536,242)"/>
<path d="M0 0 C247.79089027 0 247.79089027 0 295 26 C296.03769531 26.55042969 297.07539063 27.10085938 298.14453125 27.66796875 C328.03642375 44.1613983 350.05410947 72.49181763 360 105 C361.59024568 110.61069266 362.86577529 116.2808474 364 122 C364.25370361 123.14887695 364.50740723 124.29775391 364.76879883 125.48144531 C367.15981343 136.91031081 367.43013806 148.09781031 367.33618164 159.74658203 C367.31258424 162.86387152 367.31564755 165.98029973 367.32226562 169.09765625 C367.30091755 184.97034058 366.74022047 200.96520666 362.875 216.4375 C362.55849487 217.72853638 362.55849487 217.72853638 362.2355957 219.0456543 C359.73341196 228.73070179 356.06673497 237.87826144 352 247 C351.68691895 247.71526855 351.37383789 248.43053711 351.05126953 249.16748047 C344.33352396 264.30641265 334.386062 277.0479005 323 289 C322.15888672 289.95326172 322.15888672 289.95326172 321.30078125 290.92578125 C306.16947303 307.34920118 284.74463362 317.94991713 264.30444336 326.07666016 C262.73136835 326.70695677 261.1646196 327.35321739 259.60375977 328.01318359 C253.41082824 330.59821923 247.21223768 332.44689365 240.6875 334 C239.63022705 334.25418701 238.5729541 334.50837402 237.48364258 334.77026367 C225.35015768 337.56175017 213.07050185 339.13276424 200.71948242 340.61450195 C197.76372775 340.98541952 197.76372775 340.98541952 194 342 C167.03526392 343.41919664 140.00205753 343 113 343 C113 405.37 113 467.74 113 532 C75.71 532 38.42 532 0 532 C0 356.44 0 180.88 0 0 Z " fill="#37B9D8" transform="translate(2706,247)"/>
<path d="M0 0 C217.27934621 0 217.27934621 0 249 8 C249.83805176 8.20915039 250.67610352 8.41830078 251.53955078 8.63378906 C261.03037416 11.03705284 270.12103015 13.81795266 279 18 C279.71881348 18.3309668 280.43762695 18.66193359 281.17822266 19.00292969 C315.10261455 34.72819118 342.19268455 59.71217182 356 95 C358.33101108 101.57262337 360.2266915 108.25850869 362 115 C362.31839844 116.18980469 362.63679688 117.37960937 362.96484375 118.60546875 C374.21034658 165.43375666 368.20819319 221.85016752 343.3359375 263.33203125 C318.25540655 303.49662 276.15365439 325.45375444 231.1953125 336.09375 C192.04888401 344.86314452 151.96385358 342 112 342 C112 404.7 112 467.4 112 532 C75.04 532 38.08 532 0 532 C0 356.44 0 180.88 0 0 Z " fill="#36B9D8" transform="translate(6792,247)"/>
<path d="M0 0 C0.91646301 -0.00456207 1.83292603 -0.00912415 2.77716064 -0.01382446 C20.75943656 -0.04555537 38.13355083 1.86941781 55.85595703 4.75976562 C59.19041548 5.29518268 62.52443834 5.78298917 65.87109375 6.234375 C74.59726772 7.417734 83.05840018 9.01673459 91.5625 11.3046875 C94.42341568 12.06952767 97.28652087 12.72558715 100.1875 13.3203125 C123.42609646 18.19769375 146.02467752 27.15442938 167.41549683 37.34068298 C168.61715642 37.91272414 168.61715642 37.91272414 169.84309196 38.49632168 C170.45174662 38.78628552 171.06040127 39.07624937 171.6875 39.375 C171.81086514 56.86002584 171.49267661 74.28681985 170.8125 91.7578125 C170.72239672 94.16444346 170.63272455 96.57109059 170.54345703 98.97775269 C170.31098501 105.21484772 170.07278541 111.45171031 169.83325195 117.6885376 C169.54509993 125.22380956 169.26431057 132.75935929 168.98223877 140.29486084 C168.55619576 151.65512573 168.12099891 163.01500618 167.6875 174.375 C146.2375 174.375 124.7875 174.375 102.6875 174.375 C95.64892578 135.6628418 95.64892578 135.6628418 95.17376709 133.04917908 C94.83230792 131.17135722 94.49070156 129.29356211 94.14898682 127.41578674 C93.97268738 126.44680954 93.79638794 125.47783234 93.61474609 124.47949219 C93.45573822 123.60580994 93.29673035 122.73212769 93.13290405 121.83197021 C92.47488464 118.20215568 91.82879005 114.57030244 91.1875 110.9375 C91.01154297 109.9465332 91.01154297 109.9465332 90.83203125 108.93554688 C89.74047571 102.75593404 88.71249704 96.56595609 87.6875 90.375 C83.93837516 89.5791523 80.18804576 88.78912192 76.4375 88 C75.39335938 87.77828125 74.34921875 87.5565625 73.2734375 87.328125 C70.08164477 86.65824258 66.88613724 86.0113521 63.6875 85.375 C62.81931641 85.19678711 61.95113281 85.01857422 61.05664062 84.83496094 C42.33865196 81.33133742 23.09459169 81.02260637 4.11181641 81.05932617 C0.6614727 81.06252412 -2.78804011 81.03875834 -6.23828125 81.01367188 C-18.30782111 80.97944369 -29.56688224 81.48080083 -41.3125 84.375 C-42.61695674 84.67921384 -43.92164799 84.98242373 -45.2265625 85.28466797 C-65.00551095 90.00190332 -82.93551196 99.06898678 -98.3125 112.375 C-99.11945313 113.03757812 -99.92640625 113.70015625 -100.7578125 114.3828125 C-112.84204134 124.64872477 -121.12900953 137.38821397 -128.3125 151.375 C-128.85519531 152.41914063 -129.39789062 153.46328125 -129.95703125 154.5390625 C-146.26196342 187.8372617 -149.88272675 225.69975116 -149.64868164 262.24487305 C-149.62491371 266.20186586 -149.62817583 270.15818716 -149.63476562 274.11523438 C-149.61463961 293.24709473 -148.70891122 311.9970772 -145.0625 330.8125 C-144.84489014 331.9459082 -144.62728027 333.07931641 -144.40307617 334.24707031 C-137.45948181 369.39116553 -124.11656639 401.09398395 -99.3125 427.375 C-98.62800781 428.12394531 -97.94351562 428.87289063 -97.23828125 429.64453125 C-75.87644385 452.19094374 -42.52722008 465.77683083 -11.65838623 466.82957458 C-7.39544677 466.89954695 -3.13786893 466.87303808 1.125 466.8125 C2.01992157 466.80568207 2.91484314 466.79886414 3.83688354 466.7918396 C16.10771709 466.69518011 28.18446251 466.34955835 40.24267578 463.87548828 C42.99737121 463.31156521 45.7608033 462.81107042 48.52734375 462.30859375 C85.08480383 455.43332186 121.76154025 440.75887067 148.8984375 414.85546875 C151.7177059 412.34813621 154.50789138 410.38687625 157.6875 408.375 C163.71652018 417.89045038 169.35239864 427.62675871 174.94726562 437.40234375 C177.96984243 442.68198041 181.01079426 447.94248417 184.171875 453.140625 C184.69483154 454.00993652 185.21778809 454.87924805 185.7565918 455.77490234 C186.72946393 457.38729039 187.71475292 458.99227172 188.71411133 460.58837891 C189.13974365 461.29913574 189.56537598 462.00989258 190.00390625 462.7421875 C190.56766968 463.65653564 190.56766968 463.65653564 191.14282227 464.58935547 C191.6875 466.375 191.6875 466.375 190.97973633 468.4284668 C189.68816309 470.37400117 188.48823353 471.66782684 186.6953125 473.15234375 C186.08341064 473.65902588 185.47150879 474.16570801 184.84106445 474.68774414 C184.17163818 475.22391357 183.50221191 475.76008301 182.8125 476.3125 C182.10633545 476.88025146 181.4001709 477.44800293 180.67260742 478.03295898 C151.74315101 500.84520121 118.08342966 516.7705561 83.6875 529.375 C82.78902344 529.71015625 81.89054687 530.0453125 80.96484375 530.390625 C59.29981303 538.4612624 37.57107545 543.24279077 14.6875 546.375 C13.57777832 546.551521 12.46805664 546.72804199 11.32470703 546.90991211 C7.51209456 547.39742901 3.76620184 547.55336415 -0.0703125 547.578125 C-0.80286758 547.58513931 -1.53542267 547.59215363 -2.29017639 547.59938049 C-4.67268017 547.61691561 -7.05493382 547.62324367 -9.4375 547.625 C-10.6681871 547.62601212 -10.6681871 547.62601212 -11.92373657 547.62704468 C-52.76557394 547.57401685 -93.53496808 540.71890536 -130.3125 522.375 C-131.00939941 522.02937012 -131.70629883 521.68374023 -132.42431641 521.32763672 C-151.02222357 512.00411227 -167.31642974 499.68943071 -182.3125 485.375 C-183.16585938 484.57449219 -184.01921875 483.77398438 -184.8984375 482.94921875 C-210.00676125 458.75176479 -227.31860161 426.14236458 -238.3125 393.375 C-238.75722656 392.05290527 -238.75722656 392.05290527 -239.2109375 390.70410156 C-244.14374677 375.81608213 -247.64344409 360.82340381 -250.3125 345.375 C-250.46702637 344.48103516 -250.62155273 343.58707031 -250.78076172 342.66601562 C-257.17361061 304.55341816 -258.28463476 263.59537534 -252.3125 225.375 C-252.17328125 224.41158691 -252.0340625 223.44817383 -251.890625 222.45556641 C-242.51838365 157.92377958 -211.89862487 95.36031125 -160.3125 54.375 C-159.36890625 53.60285156 -158.4253125 52.83070313 -157.453125 52.03515625 C-120.32227473 22.35933421 -75.9093288 7.28851784 -29.3125 1.375 C-28.537854 1.2704248 -27.76320801 1.16584961 -26.96508789 1.05810547 C-18.02684945 -0.01056533 -8.98975427 0.04324614 0 0 Z " fill="#5D696B" transform="translate(1785.3125,241.625)"/>
<path d="M0 0 C40.26 0 80.52 0 122 0 C130.16363281 16.34466797 130.16363281 16.34466797 138.4921875 33.01953125 C141.95550659 39.95128321 145.41892874 46.88298336 148.8828125 53.81445312 C154.37227645 64.79929568 159.86133689 75.78433844 165.34765625 86.77075195 C169.34477086 94.77501206 173.34333616 102.77854555 177.3435775 110.7812435 C179.45762512 115.0106317 181.57099059 119.24035736 183.68261337 123.4709568 C191.66534752 139.46317921 199.65515315 155.43830216 208.05715561 171.215662 C210.37397318 175.60025151 212.58204926 180.03992748 214.7890625 184.48046875 C215.26322601 185.43021072 215.73738953 186.3799527 216.22592163 187.35847473 C217.69421609 190.30052296 219.15967889 193.24396995 220.625 196.1875 C221.63913242 198.22079815 222.65345441 200.25400176 223.66796875 202.28710938 C226.11415521 207.19032374 228.55803921 212.09467985 231 217 C240.57882428 199.91065988 249.37274911 182.47403325 258.07507324 164.92889404 C261.19301688 158.64388675 264.31769885 152.36223117 267.4453125 146.08203125 C267.94851894 145.07109594 267.94851894 145.07109594 268.46189117 144.0397377 C272.6325431 135.66608274 276.87836798 127.34060737 281.27737427 119.08418274 C287.41890297 107.51058244 293.16732169 95.73138987 299 84 C312.72366716 56.3972965 312.72366716 56.3972965 319.48143005 43.67922974 C324.0008689 35.15743935 328.27892622 26.51706328 332.5625 17.875 C334.14483721 14.68374763 335.72985092 11.49384445 337.31640625 8.3046875 C337.85220055 7.2206514 337.85220055 7.2206514 338.39881897 6.11471558 C340.88729419 1.11270581 340.88729419 1.11270581 342 0 C343.56887635 -0.09591199 345.14207792 -0.12187996 346.71388245 -0.12025452 C347.73336975 -0.12162918 348.75285706 -0.12300385 349.80323792 -0.12442017 C350.931082 -0.12082489 352.05892609 -0.11722961 353.22094727 -0.11352539 C354.40127533 -0.11367142 355.58160339 -0.11381744 356.79769897 -0.1139679 C360.04342108 -0.11338895 363.28910055 -0.10835986 366.53481412 -0.10139394 C369.92343032 -0.09515962 373.31204728 -0.09455654 376.70066833 -0.09336853 C383.12155804 -0.09025544 389.54243081 -0.08204236 395.96331304 -0.07201904 C403.27153825 -0.0608572 410.57976424 -0.05534727 417.88799584 -0.05032361 C432.92534002 -0.03985973 447.96266832 -0.02226073 463 0 C461.72826009 3.91464996 460.36447901 7.45211427 458.3828125 11.0625 C457.60550781 12.48755859 457.60550781 12.48755859 456.8125 13.94140625 C456.255625 14.95074219 455.69875 15.96007812 455.125 17 C454.54492188 18.06089844 453.96484375 19.12179687 453.3671875 20.21484375 C452.1651051 22.41256396 450.96098859 24.60917274 449.75488281 26.8046875 C447.64841918 30.64016274 445.55292984 34.48154427 443.45874023 38.32373047 C442.47968194 40.11995425 441.50001893 41.91584854 440.51977539 43.71142578 C434.65243367 54.45942065 428.82749832 65.2303681 423 76 C416.1915574 88.5824868 409.37329217 101.15928514 402.51708984 113.71582031 C396.65143822 124.4627861 390.82668371 135.23187355 385 146 C378.1915574 158.5824868 371.37329217 171.15928514 364.51708984 183.71582031 C358.65143822 194.4627861 352.82668371 205.23187355 347 216 C340.19233728 228.58104553 333.37542626 241.1567215 326.51928711 253.71142578 C322.83194894 260.4666051 319.16282409 267.23150152 315.5 274 C311.25715553 281.83723033 307.01096882 289.67260578 302.75 297.5 C302.30333984 298.32242187 301.85667969 299.14484375 301.39648438 299.9921875 C300.95111328 300.80945313 300.50574219 301.62671875 300.046875 302.46875 C299.61160964 303.28730972 299.17634428 304.10586945 298.72788906 304.94923401 C297 308 297 308 294.77285099 311.30503845 C287.46395098 322.42874105 286.72163643 331.84509608 286.88647461 344.91015625 C286.87913392 346.96176863 286.86784034 349.01337003 286.85293579 351.06494141 C286.82385699 356.58500971 286.84945207 362.10357898 286.88552547 367.62355423 C286.9138266 373.41047509 286.89093221 379.19719887 286.87367249 384.98413086 C286.84872927 395.92026205 286.86924235 406.85580727 286.90644604 417.79188442 C286.95411278 432.58539957 286.93083343 447.37879666 286.9117136 462.17234802 C286.88348513 485.44855635 286.94941655 508.72352042 287 532 C250.04 532 213.08 532 175 532 C175.06703125 517.46839844 175.1340625 502.93679688 175.203125 487.96484375 C175.21884561 478.72715593 175.23150832 469.48962916 175.23046875 460.25195312 C175.22938414 445.60781807 175.24034041 430.96444147 175.33251953 416.32055664 C175.39961697 405.652074 175.42377636 394.98446811 175.39809489 384.31579119 C175.38597166 378.67548789 175.3941786 373.03699301 175.4539566 367.39695549 C176.42406122 335.1096388 176.42406122 335.1096388 163.575737 306.2675333 C160.72948713 302.17169347 158.503422 297.72238409 156.1875 293.3125 C155.18843462 291.48776922 154.18866625 289.6634227 153.1875 287.83984375 C149.64837774 281.37251915 146.16496083 274.87563005 142.6875 268.375 C142.37307953 267.78731842 142.05865906 267.19963684 141.73471069 266.59414673 C140.13042625 263.59525512 138.52673771 260.59604539 136.92333984 257.59667969 C133.78619205 251.72899625 130.6426463 245.86473982 127.5 240 C124.05317595 233.56664766 120.60644934 227.13324376 117.16184998 220.69869995 C108.46500538 204.45294996 99.74248401 188.22123233 91 172 C80.98891469 153.42494279 71.01043927 134.83263775 61.05212402 116.22924805 C54.04832612 103.14550759 47.03997544 90.06432186 40 77 C35.1759442 68.04783559 30.36366571 59.08946227 25.5625 50.125 C24.94858398 48.97894287 24.33466797 47.83288574 23.70214844 46.65209961 C20.75722008 41.15323403 17.81419906 35.65336288 14.87535095 30.15124512 C13.4990096 27.57482329 12.12173206 24.99890251 10.74435425 22.42303467 C10.08854569 21.19595231 9.43320075 19.96862205 8.77835083 18.74102783 C7.86900192 17.03637706 6.95797171 15.3326235 6.046875 13.62890625 C5.52963867 12.66025635 5.01240234 11.69160645 4.47949219 10.69360352 C3.4804782 8.87477161 2.42129918 7.08790264 1.30957031 5.33569336 C0 3 0 3 0 0 Z " fill="#37B9D8" transform="translate(7720,247)"/>
<path d="M0 0 C0 47.85 0 95.7 0 145 C47.52 145 95.04 145 144 145 C144 169.42 144 193.84 144 219 C96.48 219 48.96 219 0 219 C0.148744 277.05274765 0.148744 277.05274765 0.30664062 335.10546875 C0.32860622 342.93277974 0.3505111 350.7600909 0.37231445 358.58740234 C0.37641723 360.05892212 0.37641723 360.05892212 0.3806029 361.56016958 C0.4246601 377.39365523 0.46529008 393.22714792 0.50465261 409.06064586 C0.54513164 425.31254325 0.58929732 441.5644276 0.63687855 457.81630576 C0.66611783 467.84291179 0.69248854 477.86951691 0.71517897 487.89613993 C0.73101853 494.77366374 0.75044215 501.65117164 0.77266841 508.52867775 C0.78538242 512.49538765 0.79653124 516.46208546 0.80341911 520.42881012 C0.8097677 524.06481933 0.82064591 527.70078661 0.8350333 531.33677264 C0.84151508 533.26597534 0.84323249 535.19519227 0.84474558 537.12440526 C0.93071595 555.37968046 3.54254927 573.98166553 16.484375 587.88671875 C29.78816728 599.06273059 45.50134763 598.89828856 62 598 C82.16777677 596.02636195 100.75395727 587.46798409 118.6262207 578.41772461 C119.5462085 577.95889893 120.46619629 577.50007324 121.4140625 577.02734375 C122.2282666 576.61218506 123.0424707 576.19702637 123.88134766 575.76928711 C126 575 126 575 129 576 C130.09985352 577.64794922 130.09985352 577.64794922 131.12890625 579.8046875 C131.51925049 580.60664551 131.90959473 581.40860352 132.31176758 582.23486328 C132.72450928 583.1061084 133.13725098 583.97735352 133.5625 584.875 C134.4512749 586.70402517 135.34195001 588.53212801 136.234375 590.359375 C136.69005859 591.29587891 137.14574219 592.23238281 137.61523438 593.19726562 C139.76586587 597.55009523 142.03500447 601.83756943 144.3125 606.125 C145.13818819 607.69131804 145.96371583 609.25772073 146.7890625 610.82421875 C148.10351511 613.3140846 149.43094996 615.79450466 150.7734375 618.26953125 C151.24007813 619.14996094 151.70671875 620.03039062 152.1875 620.9375 C152.57292969 621.64777344 152.95835937 622.35804688 153.35546875 623.08984375 C154.176603 625.52338707 153.87579173 626.60296061 153 629 C151.56738281 630.36523438 151.56738281 630.36523438 149.703125 631.59375 C149.00268066 632.06063232 148.30223633 632.52751465 147.58056641 633.00854492 C146.81147949 633.5007251 146.04239258 633.99290527 145.25 634.5 C144.44868652 635.02118408 143.64737305 635.54236816 142.82177734 636.0793457 C127.19429529 646.12257135 111.16267712 654.87779945 94 662 C93.30600098 662.29100586 92.61200195 662.58201172 91.89697266 662.88183594 C54.64708309 678.30497968 6.99252059 684.55260807 -31 669 C-56.8858007 658.01008804 -75.88539614 639.00091868 -86.4453125 612.953125 C-86.96427653 611.63570591 -87.48254344 610.31801192 -88 609 C-88.67675781 607.35257813 -88.67675781 607.35257813 -89.3671875 605.671875 C-96.93271882 585.46579757 -99.16913624 562.49216087 -99.12025452 541.04159546 C-99.1206913 539.64703178 -99.12156818 538.25246819 -99.12284368 536.85790503 C-99.12506756 533.04955909 -99.12109638 529.24124156 -99.11606562 525.43289924 C-99.11173089 521.31715382 -99.11320969 517.2014099 -99.1139679 513.08566284 C-99.11449122 505.96272785 -99.11136445 498.83980204 -99.10573006 491.71686935 C-99.09758908 481.41841462 -99.09499717 471.1199643 -99.09374207 460.82150669 C-99.09155563 444.11130794 -99.08490661 427.40111407 -99.07543945 410.69091797 C-99.06625478 394.46240259 -99.05917911 378.23388855 -99.05493164 362.00537109 C-99.05466892 361.00436781 -99.05440619 360.00336454 -99.05413551 358.97202782 C-99.05283043 353.95008623 -99.05156673 348.92814464 -99.05032361 343.90620303 C-99.0399637 302.27079767 -99.02153224 260.63540137 -99 219 C-131.67 219 -164.34 219 -198 219 C-198 197.55 -198 176.1 -198 154 C-166.53522934 150.90171843 -166.53522934 150.90171843 -152.61328125 149.53515625 C-144.62301281 148.75080941 -136.63284485 147.96559535 -128.64387512 147.16810608 C-126.41771773 146.94603796 -124.1914354 146.72527994 -121.96508789 146.50512695 C-119.49135053 146.26025385 -117.01785791 146.01288912 -114.54467773 145.76245117 C-113.48063721 145.65779541 -112.41659668 145.55313965 -111.3203125 145.4453125 C-110.44648926 145.35781738 -109.57266602 145.27032227 -108.67236328 145.18017578 C-105.45498719 144.96325421 -102.22468043 145 -99 145 C-99 103.42 -99 61.84 -99 19 C-83.4075 15.865 -67.815 12.73 -51.75 9.5 C-44.36512207 8.01209961 -44.36512207 8.01209961 -36.83105469 6.49414062 C-30.81884766 5.28808594 -30.81884766 5.28808594 -28.00421143 4.7244873 C-26.0382692 4.33007028 -24.07263239 3.93412904 -22.10723877 3.5369873 C-19.13046746 2.9357869 -16.15276337 2.33942757 -13.17480469 1.74414062 C-12.29920269 1.56614174 -11.42360069 1.38814285 -10.5214653 1.20475006 C-9.71828495 1.04521599 -8.9151046 0.88568192 -8.08758545 0.72131348 C-7.39070995 0.58120094 -6.69383446 0.44108841 -5.97584152 0.29673004 C-4 0 -4 0 0 0 Z " fill="#5D696B" transform="translate(749,112)"/>
<path d="M0 0 C2.50944009 0.02373398 5.01781834 0.02050975 7.52734375 0.01391602 C40.02008591 0.07085342 71.39587236 9.01104101 94.87890625 32.33618164 C121.8703533 60.24230049 132.02687537 97.77655801 137.62890625 135.21118164 C137.74459961 135.96923096 137.86029297 136.72728027 137.97949219 137.50830078 C140.43277534 155.22376416 140.15361444 173.30763015 140.19140625 191.14868164 C140.19468933 192.42033173 140.19797241 193.69198181 140.20135498 195.00216675 C140.22083603 218.40755036 139.84583138 242.43899549 134.35253906 265.33398438 C133.85784229 267.42522573 133.44890152 269.52068694 133.0546875 271.63305664 C126.19643887 307.53138795 110.37767703 345.70653279 79.17333984 367.02099609 C58.52924808 380.55104472 34.70250201 387.4003169 10.06640625 387.53930664 C9.25381348 387.54500671 8.4412207 387.55070679 7.60400391 387.55657959 C5.89307934 387.56596002 4.18213728 387.57253559 2.47119141 387.57641602 C-0.08725354 387.58605416 -2.64486999 387.61711651 -5.203125 387.64868164 C-19.8999623 387.74481192 -33.79149935 385.99543137 -47.74609375 381.14868164 C-49.06673828 380.69585815 -49.06673828 380.69585815 -50.4140625 380.23388672 C-79.9076776 369.76676586 -102.55668895 347.34272775 -116.12109375 319.33618164 C-119.07543023 312.78085729 -121.65020733 306.08622572 -124.12109375 299.33618164 C-124.36456543 298.6798877 -124.60803711 298.02359375 -124.85888672 297.34741211 C-137.23848489 263.30124315 -138.36844216 226.92050791 -138.43359375 191.14868164 C-138.43489162 190.48630997 -138.4361895 189.82393829 -138.4375267 189.14149475 C-138.46799009 168.57432451 -137.93111935 148.59651731 -134.12109375 128.33618164 C-133.91790527 127.2148584 -133.7147168 126.09353516 -133.50537109 124.93823242 C-126.24716345 85.53897352 -110.21101332 45.96990561 -76.44921875 22.19165039 C-66.17480132 15.26135373 -55.29813939 9.70768467 -43.49609375 5.89868164 C-42.80604248 5.67583496 -42.11599121 5.45298828 -41.4050293 5.22338867 C-27.73648244 1.16986054 -14.18981465 -0.14295294 0 0 Z " fill="#F0F1F2" transform="translate(1206.12109375,321.663818359375)"/>
<path d="M0 0 C132.33 0 264.66 0 401 0 C401 30.69 401 61.38 401 93 C353.48 93 305.96 93 257 93 C257 237.87 257 382.74 257 532 C219.71 532 182.42 532 144 532 C144 387.46 144 242.92 144 94 C96.48 94 48.96 94 0 94 C0 62.98 0 31.96 0 0 Z " fill="#37B9D8" transform="translate(4212,247)"/>
<path d="M0 0 C0.97324219 0.20496094 1.94648438 0.40992188 2.94921875 0.62109375 C23.50287583 5.56748955 41.05409254 15.21309155 56 30 C56.64195313 30.58136719 57.28390625 31.16273438 57.9453125 31.76171875 C84.24701427 56.04491783 93.36175868 96.07346414 98 130 C98.18006592 131.30445068 98.18006592 131.30445068 98.36376953 132.63525391 C103.73284685 174.26760755 102.63845432 221.7462446 90 262 C89.81775879 262.61278809 89.63551758 263.22557617 89.44775391 263.85693359 C80.39448107 294.16134648 63.71886947 324.63437913 34.97265625 340.25390625 C31.04034203 342.30035717 27.03862635 344.17439673 23 346 C22.15179688 346.39832031 21.30359375 346.79664063 20.4296875 347.20703125 C14.94422772 349.60572533 9.20592196 351.13235075 3.4375 352.6875 C2.64561279 352.90237061 1.85372559 353.11724121 1.0378418 353.33862305 C0.26093994 353.54011963 -0.51596191 353.74161621 -1.31640625 353.94921875 C-2.00162354 354.12799561 -2.68684082 354.30677246 -3.39282227 354.4909668 C-10.40988813 355.86099979 -17.44868261 356.1749004 -24.58203125 356.23828125 C-25.47629318 356.246353 -26.37055511 356.25442474 -27.29191589 356.26274109 C-29.17855955 356.27649066 -31.06522713 356.28725305 -32.9519043 356.29516602 C-34.83935085 356.30660313 -36.72676723 356.32692112 -38.61401367 356.35668945 C-72.68208167 356.8917587 -102.91442323 346.41124163 -127.6875 322.75 C-152.45396058 297.08490152 -163.30462038 261.54816558 -167.63549805 226.90454102 C-167.90639756 224.74587288 -168.20370496 222.59048528 -168.51489258 220.43725586 C-170.34482948 206.97888507 -170.34114552 193.51565645 -170.31567383 179.95336914 C-170.30877609 175.96938283 -170.33601238 171.9858655 -170.36132812 168.00195312 C-170.45863274 129.05792969 -164.13034251 91.68221648 -146 57 C-145.443125 55.93136719 -144.88625 54.86273438 -144.3125 53.76171875 C-139.82885353 45.62433152 -134.19017296 38.86664395 -128 32 C-127.42765625 31.34386719 -126.8553125 30.68773437 -126.265625 30.01171875 C-111.9587069 14.56172215 -91.20653163 4.88181985 -71 0 C-70.00637451 -0.24339111 -70.00637451 -0.24339111 -68.99267578 -0.49169922 C-47.25098242 -5.50662444 -21.68452193 -4.88185572 0 0 Z " fill="#F0F1F2" transform="translate(4916,335)"/>
<path d="M0 0 C0.69907471 0.00060425 1.39814941 0.0012085 2.1184082 0.00183105 C37.53951825 0.08522749 69.12951024 9.33131344 94.8125 34.375 C100.82563378 40.42559607 105.85537096 46.85859903 110.25 54.1875 C110.64783691 54.84363281 111.04567383 55.49976563 111.45556641 56.17578125 C122.72580736 75.13687332 129.33529476 96.4955234 132.91650391 118.18359375 C133.20351322 119.90817094 133.52609569 121.62676013 133.85546875 123.34375 C137.09246406 140.67262715 137.57750004 158.25710432 137.51074219 175.83496094 C137.50000984 179.1844288 137.51071682 182.53336058 137.5234375 185.8828125 C137.53699324 204.44598828 136.23668237 222.55726151 132.8125 240.8125 C132.60818359 241.96105469 132.40386719 243.10960937 132.19335938 244.29296875 C130.89988645 251.37684852 129.27536544 258.2786591 127.25 265.1875 C126.90328247 266.40203857 126.90328247 266.40203857 126.54956055 267.64111328 C118.77046515 294.30379364 104.99662587 320.73021841 81.8125 337.125 C81.21759766 337.54612061 80.62269531 337.96724121 80.00976562 338.40112305 C60.46341923 351.85065345 37.23094028 359.22197236 13.546875 359.42578125 C12.62900208 359.433853 11.71112915 359.44192474 10.76544189 359.45024109 C8.82574304 359.46400983 6.88602069 359.47476388 4.94628906 359.48266602 C3.00350611 359.49409604 1.06075227 359.51440222 -0.88183594 359.54418945 C-34.78091218 360.06210808 -65.08345586 350.04220649 -89.875 326.5 C-122.18804282 292.92800746 -132.86955537 242.14211867 -132.91796875 196.94921875 C-132.92129715 195.82594681 -132.92462555 194.70267487 -132.92805481 193.54536438 C-132.93308051 191.18153284 -132.9354645 188.8176943 -132.93530273 186.45385742 C-132.9374714 182.92158625 -132.9556256 179.38963731 -132.97460938 175.85742188 C-133.09942337 125.29405582 -125.26290184 71.16084748 -88.7734375 33.1640625 C-69.54672333 13.86190014 -46.01723415 5.66624499 -19.75 1.1875 C-18.99267578 1.01404053 -18.23535156 0.84058105 -17.45507812 0.66186523 C-11.71679147 -0.34440651 -5.8119408 -0.0091436 0 0 Z " fill="#F0F1F2" transform="translate(3927.75,331.8125)"/>
<path d="M0 0 C81.15527886 0 81.15527886 0 95.0625 5.1875 C96.36550049 5.6520459 96.36550049 5.6520459 97.69482422 6.12597656 C113.20876795 11.84697879 125.47920221 20.91062234 133.5 35.6796875 C139.4003869 48.74043976 141.17997856 61.41932511 141.1875 75.6875 C141.19974609 76.89083984 141.21199219 78.09417969 141.22460938 79.33398438 C141.25913698 100.6375173 135.03649812 117.92322748 120.46484375 133.5859375 C107.62375014 146.16247609 92.19391991 151.57505418 75 155 C73.54207031 155.32097656 73.54207031 155.32097656 72.0546875 155.6484375 C48.68579166 160.70315165 22.96641982 158 0 158 C0 105.86 0 53.72 0 0 Z " fill="#F0F1F2" transform="translate(6904,339)"/>
<path d="M0 0 C99.65642789 0 99.65642789 0 122.76953125 21.55859375 C138.8183137 39.12512445 141.8395333 61.77924389 141.10498047 84.76025391 C140.23520312 103.31685253 132.64310135 122.21365517 118.9296875 134.91796875 C85.93080377 163.07048176 40.30060793 158 0 158 C0 105.86 0 53.72 0 0 Z " fill="#F0F1F2" transform="translate(2819,339)"/>
<path d="M0 0 C101.69763514 0 101.69763514 0 126.59765625 24.3515625 C140.65247805 39.84614654 142.13292093 57.62057664 141.484375 77.57421875 C141.04680697 86.36425339 139.50943647 93.95057826 136 102 C135.55398438 103.02480469 135.10796875 104.04960937 134.6484375 105.10546875 C126.76872272 121.06299169 112.32259581 130.85731726 95.94921875 136.72265625 C65.2935229 146.95653025 31.61662486 144 0 144 C0 96.48 0 48.96 0 0 Z " fill="#EFF1F2" transform="translate(5882,339)"/>
<path d="M0 0 C1.57898361 2.91786079 2.53802023 5.67718024 3.33203125 8.89453125 C3.68974609 10.31596436 3.68974609 10.31596436 4.0546875 11.76611328 C4.30476563 12.7714209 4.55484375 13.77672852 4.8125 14.8125 C6.82660348 22.73013726 9.04866599 30.44201504 11.7265625 38.16015625 C13.28555652 42.74350139 14.56974627 47.40185581 15.875 52.0625 C18.73308242 62.2360887 21.90299909 72.29359018 25.14746094 82.34960938 C26.48887667 86.51982965 27.80775017 90.6970949 29.125 94.875 C29.49322876 96.04180298 29.49322876 96.04180298 29.86889648 97.23217773 C31.85508968 103.53010691 33.82869173 109.83192209 35.79296875 116.13671875 C36.58039835 118.66244829 37.37590584 121.18516492 38.17578125 123.70703125 C40.37120663 130.65086854 42.47575579 137.61118788 44.48950195 144.61010742 C47.56453026 155.29682696 50.88362169 165.86201149 54.44921875 176.39453125 C56.42314214 182.22673833 58.22274011 188.10531596 60 194 C60.56314127 195.83874418 61.12701356 197.67726455 61.69140625 199.515625 C62.31518462 201.55205869 62.93888185 203.58851724 63.5625 205.625 C63.85576172 206.57938965 64.14902344 207.5337793 64.45117188 208.51708984 C70 226.69482532 70 226.69482532 70 230 C24.46 230 -21.08 230 -68 230 C-65.74585635 217.60220994 -65.74585635 217.60220994 -64.25 212.9375 C-63.72792969 211.29587891 -63.72792969 211.29587891 -63.1953125 209.62109375 C-62.34562574 207.04704269 -61.4874376 204.47721449 -60.6171875 201.91015625 C-57.24745584 191.95972102 -54.21766509 181.96025334 -51.37109375 171.84765625 C-49.01698575 163.48629118 -46.422294 155.22315634 -43.625 147 C-41.30077856 140.14556197 -39.32342928 133.21080067 -37.36938477 126.24316406 C-35.56746121 119.86546058 -33.60758074 113.55353356 -31.5625 107.25 C-28.66444451 98.2933198 -26.06574757 89.27490151 -23.56152344 80.20092773 C-21.4928113 72.71496518 -19.31387272 65.26981662 -17.06274414 57.83691406 C-14.96610069 50.91183031 -12.96794973 43.96287299 -11 37 C-10.04975601 33.67011957 -9.09734287 30.34086533 -8.14453125 27.01171875 C-7.24060233 23.84920126 -6.34443948 20.68452422 -5.44921875 17.51953125 C-5.17899902 16.56699463 -4.9087793 15.61445801 -4.63037109 14.63305664 C-4.09134618 12.7329536 -3.55387376 10.83240935 -3.01806641 8.93139648 C-2.7710498 8.06200439 -2.5240332 7.1926123 -2.26953125 6.296875 C-2.04885986 5.51666992 -1.82818848 4.73646484 -1.60083008 3.93261719 C-1 2 -1 2 0 0 Z " fill="#EFF1F2" transform="translate(6467,328)"/>
<path d="M0 0 C0.33 0 0.66 0 1 0 C1.36923077 6.52307692 1.36923077 6.52307692 -0.5 8.9375 C-0.995 9.288125 -1.49 9.63875 -2 10 C-1.125 2.25 -1.125 2.25 0 0 Z " fill="#E0ECF0" transform="translate(6467,328)"/>
</svg>
